<svg class="svg-icon" style="width: 1.529296875em;height: 1em;vertical-align: middle;fill: currentColor;overflow: hidden;" viewBox="0 0 1566 1024" version="1.1" xmlns="http://www.w3.org/2000/svg"><path d="M799.974226 398.515687H35.435424a34.567955 34.567955 0 0 1-33.654839-33.654838 33.654839 33.654839 0 0 1 33.654839-33.654839h764.473579a131.814786 131.814786 0 1 0-130.90167-131.814786 34.567955 34.567955 0 0 1-68.157571 0 199.059241 199.059241 0 1 1 199.059241 199.059241z m-1.826232 625.41909a199.059241 199.059241 0 0 1-199.059241-199.059241 34.567955 34.567955 0 0 1 33.654839-33.654839 33.654839 33.654839 0 0 1 33.654839 33.654839 131.814786 131.814786 0 1 0 131.814786-130.90167H33.674415A33.654839 33.654839 0 0 1 0.019576 660.319027a32.611278 32.611278 0 0 1 33.654839-33.654838h764.473579a199.059241 199.059241 0 0 1 0 397.270588z"  /><path d="M1325.341915 545.788219H271.997634a32.611278 32.611278 0 0 1-33.654839-33.654839 33.654839 33.654839 0 0 1 33.654839-33.654839h1053.344281a172.709328 172.709328 0 1 0-172.709329-172.709328 33.654839 33.654839 0 0 1-33.654839 34.567954 34.567955 34.567955 0 0 1-33.654839-34.567954 239.953784 239.953784 0 1 1 239.953784 239.953783z"  /></svg>